<svg width="28" height="28" viewBox="0 0 28 28" fill="none" xmlns="http://www.w3.org/2000/svg">
<path d="M6.41666 25.6666C5.94999 25.6666 5.54166 25.4916 5.19166 25.1416C4.84166 24.7916 4.66666 24.3833 4.66666 23.9166V8.74998C4.66666 8.28331 4.84166 7.87498 5.19166 7.52498C5.54166 7.17498 5.94999 6.99998 6.41666 6.99998H9.62499V6.70831C9.62499 5.48331 10.0479 4.4479 10.8937 3.60206C11.7396 2.75623 12.775 2.33331 14 2.33331C15.225 2.33331 16.2604 2.75623 17.1062 3.60206C17.9521 4.4479 18.375 5.48331 18.375 6.70831V6.99998H21.5833C22.05 6.99998 22.4583 7.17498 22.8083 7.52498C23.1583 7.87498 23.3333 8.28331 23.3333 8.74998V23.9166C23.3333 24.3833 23.1583 24.7916 22.8083 25.1416C22.4583 25.4916 22.05 25.6666 21.5833 25.6666H6.41666ZM11.375 6.70831V6.99998H16.625V6.70831C16.625 5.96942 16.3722 5.3472 15.8667 4.84165C15.3611 4.33609 14.7389 4.08331 14 4.08331C13.2611 4.08331 12.6389 4.33609 12.1333 4.84165C11.6278 5.3472 11.375 5.96942 11.375 6.70831ZM6.41666 23.9166H21.5833V8.74998H18.375V11.375C18.375 11.6278 18.2924 11.8368 18.1271 12.0021C17.9618 12.1673 17.7528 12.25 17.5 12.25C17.2472 12.25 17.0382 12.1673 16.8729 12.0021C16.7076 11.8368 16.625 11.6278 16.625 11.375V8.74998H11.375V11.375C11.375 11.6278 11.2924 11.8368 11.1271 12.0021C10.9618 12.1673 10.7528 12.25 10.5 12.25C10.2472 12.25 10.0382 12.1673 9.87291 12.0021C9.70763 11.8368 9.62499 11.6278 9.62499 11.375V8.74998H6.41666V23.9166ZM6.41666 23.9166V8.74998V23.9166Z" fill="black"/>
</svg>
