<svg width="28" height="28" viewBox="0 0 28 28" fill="none" xmlns="http://www.w3.org/2000/svg">
<path d="M14 13.9708C12.7167 13.9708 11.6667 13.5625 10.85 12.7458C10.0333 11.9292 9.62499 10.8792 9.62499 9.59583C9.62499 8.31249 10.0333 7.26249 10.85 6.44583C11.6667 5.62916 12.7167 5.22083 14 5.22083C15.2833 5.22083 16.3333 5.62916 17.15 6.44583C17.9667 7.26249 18.375 8.31249 18.375 9.59583C18.375 10.8792 17.9667 11.9292 17.15 12.7458C16.3333 13.5625 15.2833 13.9708 14 13.9708ZM6.41666 23.3333C5.93055 23.3333 5.51735 23.1632 5.17707 22.8229C4.8368 22.4826 4.66666 22.0694 4.66666 21.5833V20.5917C4.66666 19.8528 4.85138 19.2208 5.22082 18.6958C5.59027 18.1708 6.06666 17.7722 6.64999 17.5C7.95277 16.9167 9.20207 16.4792 10.3979 16.1875C11.5937 15.8958 12.7944 15.75 14 15.75C15.2055 15.75 16.4014 15.9007 17.5875 16.2021C18.7736 16.5035 20.018 16.9361 21.3208 17.5C21.9236 17.7722 22.4097 18.1708 22.7792 18.6958C23.1486 19.2208 23.3333 19.8528 23.3333 20.5917V21.5833C23.3333 22.0694 23.1632 22.4826 22.8229 22.8229C22.4826 23.1632 22.0694 23.3333 21.5833 23.3333H6.41666ZM6.41666 21.5833H21.5833V20.5917C21.5833 20.2805 21.491 19.984 21.3062 19.7021C21.1215 19.4201 20.893 19.2111 20.6208 19.075C19.3764 18.4722 18.2389 18.059 17.2083 17.8354C16.1778 17.6118 15.1083 17.5 14 17.5C12.8917 17.5 11.8125 17.6118 10.7625 17.8354C9.71249 18.059 8.57499 18.4722 7.34999 19.075C7.07777 19.2111 6.85416 19.4201 6.67916 19.7021C6.50416 19.984 6.41666 20.2805 6.41666 20.5917V21.5833ZM14 12.2208C14.7583 12.2208 15.3854 11.9729 15.8812 11.4771C16.3771 10.9812 16.625 10.3542 16.625 9.59583C16.625 8.83749 16.3771 8.21041 15.8812 7.71458C15.3854 7.21874 14.7583 6.97083 14 6.97083C13.2417 6.97083 12.6146 7.21874 12.1187 7.71458C11.6229 8.21041 11.375 8.83749 11.375 9.59583C11.375 10.3542 11.6229 10.9812 12.1187 11.4771C12.6146 11.9729 13.2417 12.2208 14 12.2208Z" fill="black"/>
</svg>
