<svg width="48" height="48" viewBox="0 0 48 48" fill="none" xmlns="http://www.w3.org/2000/svg">
<path d="M27.5002 43.7999L25.4002 41.7L32.5002 34.5999L13.4002 15.5L6.3002 22.6L4.2002 20.5L7.0002 17.6L4.2002 14.8L8.4502 10.55L6.3502 8.44995L8.4502 6.34995L10.6002 8.39995L14.8002 4.19995L17.6002 6.99995L20.5002 4.19995L22.6002 6.29995L15.5002 13.4L34.6002 32.5L41.7002 25.4L43.8002 27.5L41.0002 30.4L43.8002 33.2L39.5002 37.5L41.6002 39.5999L39.5002 41.7L37.4002 39.5999L33.2002 43.7999L30.4002 41L27.5002 43.7999Z" fill="#D322D6"/>
</svg>
