<svg width="153" height="30" viewBox="0 0 153 30" fill="none" xmlns="http://www.w3.org/2000/svg">
<path d="M0.119995 1.00002V29H15.96V24.76H4.84V1.00002H0.119995Z" fill="black"/>
<path d="M22.8978 29H37.0178V24.84H22.8978V29ZM22.8978 5.16002H37.0178V1.00002H22.8978V5.16002ZM22.8978 16.04H36.2178V11.96H22.8978V16.04ZM19.9778 1.00002V29H24.6178V1.00002H19.9778Z" fill="black"/>
<path d="M56.7494 18.36H65.3494C65.1094 19.2934 64.7494 20.1734 64.2694 21C63.7894 21.8267 63.1894 22.56 62.4694 23.2C61.7494 23.84 60.896 24.3334 59.9094 24.68C58.9227 25.0267 57.8027 25.2 56.5494 25.2C54.7094 25.2 53.056 24.7734 51.5894 23.92C50.1227 23.0667 48.9494 21.88 48.0694 20.36C47.216 18.8134 46.7894 17.0267 46.7894 15C46.7894 12.9467 47.2294 11.1734 48.1094 9.68002C48.9894 8.16002 50.1627 6.98669 51.6294 6.16002C53.096 5.30668 54.736 4.88002 56.5494 4.88002C58.496 4.88002 60.1494 5.28002 61.5094 6.08002C62.896 6.88002 63.976 7.94669 64.7494 9.28002L68.5894 6.72002C67.7627 5.41335 66.7494 4.30669 65.5494 3.40002C64.376 2.46669 63.0427 1.76002 61.5494 1.28002C60.056 0.773353 58.3894 0.52002 56.5494 0.52002C54.4427 0.52002 52.4827 0.866686 50.6694 1.56002C48.8827 2.25335 47.3227 3.25335 45.9894 4.56002C44.6827 5.84002 43.656 7.37335 42.9094 9.16002C42.1894 10.92 41.8294 12.8667 41.8294 15C41.8294 17.1334 42.1894 19.0934 42.9094 20.88C43.6294 22.6667 44.6427 24.2134 45.9494 25.52C47.2827 26.8267 48.8427 27.84 50.6294 28.56C52.416 29.2534 54.3627 29.6 56.4694 29.6C58.6827 29.6 60.656 29.2 62.3894 28.4C64.1494 27.5734 65.616 26.4534 66.7894 25.04C67.9627 23.6267 68.8427 22.0134 69.4294 20.2C70.016 18.36 70.2827 16.4134 70.2294 14.36H56.7494V18.36Z" fill="black"/>
<path d="M79.27 14.56H84.11C85.87 14.56 87.4167 14.3067 88.75 13.8C90.11 13.2934 91.1633 12.56 91.91 11.6C92.6833 10.6134 93.07 9.42669 93.07 8.04002C93.07 6.44002 92.6833 5.12002 91.91 4.08002C91.1633 3.04002 90.11 2.26668 88.75 1.76002C87.4167 1.25335 85.87 1.00002 84.11 1.00002H75.67V29H84.59C86.5633 29 88.2967 28.72 89.79 28.16C91.31 27.5734 92.4967 26.68 93.35 25.48C94.23 24.28 94.67 22.76 94.67 20.92C94.67 19.5867 94.4033 18.44 93.87 17.48C93.3367 16.52 92.59 15.7334 91.63 15.12C90.6967 14.5067 89.63 14.0534 88.43 13.76C87.23 13.4667 85.95 13.32 84.59 13.32H79.27V15.92H84.31C85.11 15.92 85.8433 16.0134 86.51 16.2C87.1767 16.36 87.75 16.64 88.23 17.04C88.7367 17.4134 89.1233 17.8934 89.39 18.48C89.6833 19.04 89.83 19.6934 89.83 20.44C89.83 21.48 89.59 22.3467 89.11 23.04C88.63 23.7334 87.9767 24.2534 87.15 24.6C86.3233 24.9467 85.3767 25.12 84.31 25.12H80.39V4.88002H83.79C85.0967 4.88002 86.1633 5.20002 86.99 5.84002C87.8167 6.48002 88.23 7.38669 88.23 8.56002C88.23 9.33335 88.0433 10 87.67 10.56C87.2967 11.0934 86.7767 11.5067 86.11 11.8C85.4433 12.0934 84.67 12.24 83.79 12.24H79.27V14.56Z" fill="black"/>
<path d="M103.654 15C103.654 13.08 104.054 11.3734 104.854 9.88002C105.681 8.36002 106.814 7.17335 108.254 6.32002C109.694 5.46669 111.334 5.04002 113.174 5.04002C115.068 5.04002 116.721 5.46669 118.134 6.32002C119.574 7.17335 120.694 8.36002 121.494 9.88002C122.294 11.3734 122.694 13.08 122.694 15C122.694 16.92 122.281 18.64 121.454 20.16C120.654 21.6534 119.534 22.8267 118.094 23.68C116.681 24.5334 115.041 24.96 113.174 24.96C111.334 24.96 109.694 24.5334 108.254 23.68C106.814 22.8267 105.681 21.6534 104.854 20.16C104.054 18.64 103.654 16.92 103.654 15ZM98.6544 15C98.6544 17.08 99.0144 19.0134 99.7344 20.8C100.454 22.5867 101.454 24.1334 102.734 25.44C104.041 26.7467 105.588 27.7734 107.374 28.52C109.161 29.24 111.094 29.6 113.174 29.6C115.281 29.6 117.214 29.24 118.974 28.52C120.761 27.7734 122.308 26.7467 123.614 25.44C124.921 24.1334 125.934 22.5867 126.654 20.8C127.374 19.0134 127.734 17.08 127.734 15C127.734 12.8934 127.374 10.96 126.654 9.20002C125.934 7.44002 124.908 5.92002 123.574 4.64002C122.268 3.33335 120.734 2.32002 118.974 1.60002C117.214 0.880019 115.281 0.52002 113.174 0.52002C111.121 0.52002 109.201 0.880019 107.414 1.60002C105.654 2.32002 104.108 3.33335 102.774 4.64002C101.468 5.92002 100.454 7.44002 99.7344 9.20002C99.0144 10.96 98.6544 12.8934 98.6544 15Z" fill="black"/>
<path d="M146.234 1.00002L140.874 10.48L135.634 1.00002H129.914L138.194 14.44L128.914 29H134.634L140.834 18.24L146.834 29H152.594L143.514 14.44L151.994 1.00002H146.234Z" fill="black"/>
</svg>
