<svg width="16" height="16" viewBox="0 0 16 16" fill="none" xmlns="http://www.w3.org/2000/svg">
<g clip-path="url(#clip0_16_110)">
<path d="M7.9718 16.0053L7.50709 15.6069C6.86643 15.0705 1.27246 10.2393 1.27246 6.70545C1.27246 3.00551 4.27187 0.00610352 7.9718 0.00610352C11.6717 0.00610352 14.6711 3.00551 14.6711 6.70545C14.6711 10.2394 9.07718 15.0705 8.43918 15.6096L7.9718 16.0053ZM7.9718 1.4547C5.07327 1.45798 2.72437 3.80689 2.72109 6.70542C2.72109 8.92548 6.16271 12.472 7.9718 14.0952C9.78093 12.4713 13.2225 8.92279 13.2225 6.70542C13.2192 3.80689 10.8704 1.45801 7.9718 1.4547Z" fill="#0F6122"/>
<path d="M7.97197 9.36093C6.50534 9.36093 5.31641 8.17199 5.31641 6.70537C5.31641 5.23874 6.50534 4.0498 7.97197 4.0498C9.43859 4.0498 10.6275 5.23874 10.6275 6.70537C10.6275 8.17199 9.43862 9.36093 7.97197 9.36093ZM7.97197 5.37755C7.23866 5.37755 6.64419 5.97202 6.64419 6.70534C6.64419 7.43865 7.23866 8.03312 7.97197 8.03312C8.70528 8.03312 9.29975 7.43865 9.29975 6.70534C9.29975 5.97202 8.70531 5.37755 7.97197 5.37755Z" fill="#0F6122"/>
</g>
<defs>
<clipPath id="clip0_16_110">
<rect width="16" height="16" fill="white"/>
</clipPath>
</defs>
</svg>
