<svg width="18" height="18" viewBox="0 0 18 18" fill="none" xmlns="http://www.w3.org/2000/svg">
<path d="M2.625 13.5C2.325 13.5 2.0625 13.3875 1.8375 13.1625C1.6125 12.9375 1.5 12.675 1.5 12.375V5.625C1.5 5.3375 1.6125 5.07813 1.8375 4.84688C2.0625 4.61563 2.325 4.5 2.625 4.5H15.375C15.675 4.5 15.9375 4.61563 16.1625 4.84688C16.3875 5.07813 16.5 5.3375 16.5 5.625V12.375C16.5 12.675 16.3875 12.9375 16.1625 13.1625C15.9375 13.3875 15.675 13.5 15.375 13.5H2.625ZM2.625 12.375H15.375V5.625H12.9375V9H11.8125V5.625H9.5625V9H8.4375V5.625H6.1875V9H5.0625V5.625H2.625V12.375ZM5.0625 9C5.175 9 5.275 9 5.3625 9C5.45 9 5.5375 9 5.625 9C5.7125 9 5.8 9 5.8875 9C5.975 9 6.075 9 6.1875 9H5.0625ZM8.4375 9C8.55 9 8.65 9 8.7375 9C8.825 9 8.9125 9 9 9C9.0875 9 9.175 9 9.2625 9C9.35 9 9.45 9 9.5625 9H8.4375ZM11.8125 9C11.925 9 12.025 9 12.1125 9C12.2 9 12.2875 9 12.375 9C12.4625 9 12.55 9 12.6375 9C12.725 9 12.825 9 12.9375 9H11.8125Z" fill="#1C1D1D"/>
</svg>
