<svg width="16" height="16" viewBox="0 0 16 16" fill="none" xmlns="http://www.w3.org/2000/svg">
<g clip-path="url(#clip0_16_108)">
<path d="M15.3333 16.0001C15.1565 16.0001 14.9869 15.9298 14.8619 15.8048C14.7368 15.6798 14.6666 15.5102 14.6666 15.3334C14.6655 14.2729 14.2438 13.2561 13.4939 12.5062C12.7439 11.7562 11.7271 11.3345 10.6666 11.3334H6.77993V12.3908C6.77987 12.6544 6.70164 12.9121 6.55513 13.1314C6.40862 13.3506 6.2004 13.5214 5.9568 13.6223C5.7132 13.7232 5.44516 13.7496 5.18655 13.6982C4.92795 13.6468 4.6904 13.5198 4.50393 13.3334L0.584596 9.41408C0.209654 9.03903 -0.000976563 8.53041 -0.000976562 8.00008C-0.000976563 7.46976 0.209654 6.96114 0.584596 6.58608L4.50393 2.66675C4.6904 2.48034 4.92795 2.3534 5.18655 2.30197C5.44516 2.25055 5.7132 2.27695 5.9568 2.37785C6.2004 2.47874 6.40862 2.64959 6.55513 2.86881C6.70164 3.08802 6.77987 3.34575 6.77993 3.60942V4.66675H9.99993C11.5907 4.66851 13.1158 5.30122 14.2406 6.42606C15.3655 7.55089 15.9982 9.07599 15.9999 10.6667V15.3334C15.9999 15.5102 15.9297 15.6798 15.8047 15.8048C15.6796 15.9298 15.5101 16.0001 15.3333 16.0001ZM5.4466 3.60942L1.52726 7.52875C1.40228 7.65377 1.33207 7.82331 1.33207 8.00008C1.33207 8.17686 1.40228 8.3464 1.52726 8.47142L5.4466 12.3908V10.6667C5.4466 10.4899 5.51683 10.3204 5.64186 10.1953C5.76688 10.0703 5.93645 10.0001 6.11326 10.0001H10.6666C11.4237 9.99986 12.1721 10.1611 12.8618 10.4731C13.5516 10.7851 14.1669 11.2407 14.6666 11.8094V10.6667C14.6652 9.42951 14.1731 8.24334 13.2982 7.36848C12.4233 6.49361 11.2372 6.00149 9.99993 6.00008H6.11326C5.93645 6.00008 5.76688 5.92985 5.64186 5.80482C5.51683 5.6798 5.4466 5.51023 5.4466 5.33342V3.60942Z" fill="#0F6122"/>
</g>
<defs>
<clipPath id="clip0_16_108">
<rect width="16" height="16" fill="white"/>
</clipPath>
</defs>
</svg>
