<svg width="18" height="18" viewBox="0 0 18 18" fill="none" xmlns="http://www.w3.org/2000/svg">
<g clip-path="url(#clip0_16_114)">
<path d="M18 9.48675C18.0001 9.08375 17.9353 8.68337 17.808 8.301L16.8038 5.28825C16.6544 4.8403 16.3679 4.4507 15.9848 4.17462C15.6017 3.89854 15.1414 3.74999 14.6693 3.75H12.75V3C12.75 2.40326 12.5129 1.83097 12.091 1.40901C11.669 0.987053 11.0967 0.75 10.5 0.75H2.25C1.65326 0.75 1.08097 0.987053 0.65901 1.40901C0.237053 1.83097 0 2.40326 0 3L0 14.625C0.00641635 15.1436 0.165545 15.6487 0.457491 16.0773C0.749438 16.5059 1.16125 16.839 1.64144 17.0348C2.12163 17.2306 2.6489 17.2806 3.15732 17.1784C3.66575 17.0762 4.13277 16.8264 4.5 16.4603C4.86723 16.8264 5.33425 17.0762 5.84268 17.1784C6.3511 17.2806 6.87837 17.2306 7.35856 17.0348C7.83875 16.839 8.25056 16.5059 8.54251 16.0773C8.83446 15.6487 8.99358 15.1436 9 14.625V14.25H11.25V14.625C11.25 15.3212 11.5266 15.9889 12.0188 16.4812C12.5111 16.9734 13.1788 17.25 13.875 17.25C14.5712 17.25 15.2389 16.9734 15.7312 16.4812C16.2234 15.9889 16.5 15.3212 16.5 14.625V14.25H18V9.48675ZM14.6693 5.25C14.8266 5.25012 14.9799 5.29972 15.1075 5.39179C15.2351 5.48385 15.3305 5.61372 15.3802 5.763L16.2098 8.25H12.75V5.25H14.6693ZM1.5 3C1.5 2.80109 1.57902 2.61032 1.71967 2.46967C1.86032 2.32902 2.05109 2.25 2.25 2.25H10.5C10.6989 2.25 10.8897 2.32902 11.0303 2.46967C11.171 2.61032 11.25 2.80109 11.25 3V12.75H1.5V3ZM2.625 15.75C2.32663 15.75 2.04048 15.6315 1.8295 15.4205C1.61853 15.2095 1.5 14.9234 1.5 14.625V14.25H3.75V14.625C3.75 14.9234 3.63147 15.2095 3.4205 15.4205C3.20952 15.6315 2.92337 15.75 2.625 15.75ZM7.5 14.625C7.5 14.9234 7.38147 15.2095 7.1705 15.4205C6.95952 15.6315 6.67337 15.75 6.375 15.75C6.07663 15.75 5.79048 15.6315 5.5795 15.4205C5.36853 15.2095 5.25 14.9234 5.25 14.625V14.25H7.5V14.625ZM15 14.625C15 14.9234 14.8815 15.2095 14.6705 15.4205C14.4595 15.6315 14.1734 15.75 13.875 15.75C13.5766 15.75 13.2905 15.6315 13.0795 15.4205C12.8685 15.2095 12.75 14.9234 12.75 14.625V14.25H15V14.625ZM12.75 12.75V9.75H16.5V12.75H12.75Z" fill="#0F6122"/>
</g>
<defs>
<clipPath id="clip0_16_114">
<rect width="18" height="18" fill="white"/>
</clipPath>
</defs>
</svg>
